<?xml version="1.0" encoding="UTF-8"?>
<svg xmlns="http://www.w3.org/2000/svg" version="1.1" viewBox="0 0 24 24">
  <defs>
    <style>
      .cls-1 {
        fill: #fff;
      }
    </style>
  </defs>
  <!-- Generator: Adobe Illustrator 28.7.10, SVG Export Plug-In . SVG Version: 1.2.0 Build 236)  -->
  <g>
    <g id="_레이어_1" data-name="레이어_1">
      <path class="cls-1" d="M12,12c-1.1,0-2-.4-2.8-1.2-.8-.8-1.2-1.7-1.2-2.8s.4-2,1.2-2.8,1.7-1.2,2.8-1.2,2,.4,2.8,1.2,1.2,1.7,1.2,2.8-.4,2-1.2,2.8c-.8.8-1.7,1.2-2.8,1.2ZM4,20v-2.8c0-.6.1-1.1.4-1.6s.7-.8,1.2-1.1c1-.5,2.1-.9,3.2-1.2s2.2-.4,3.3-.4,2.2.1,3.3.4,2.1.6,3.2,1.2c.5.3.9.6,1.2,1.1s.4,1,.4,1.6v2.8H4Z"/>
    </g>
  </g>
</svg>